REM MD5 aeedeced47e9fa4fedf4530b9e7567b5
FILE "Euro Demo 30 (Europe).bin" BINARY
  TRACK 01 MODE2/2352
    INDEX 01 00:00:00
  TRACK 02 AUDIO
    INDEX 00 17:46:72
    INDEX 01 17:48:72
  TRACK 03 AUDIO
    INDEX 00 19:47:14
    INDEX 01 19:49:14
REM LEADOUT 22:50:45
